<mxfile host="app.diagrams.net" modified="2021-06-05T03:20:21.363Z" agent="5.0 (Windows NT 10.0; Win64; x64) AppleWebKit/537.36 (KHTML, like Gecko) Chrome/90.0.4430.212 Safari/537.36" etag="OXCy_y9YVweI-elKxeY-" version="14.7.6" type="github">
  <diagram id="5IZNw7Qvu1E4geWVkEHZ" name="Page-1">
    <mxGraphModel dx="1038" dy="574" grid="1" gridSize="10" guides="1" tooltips="1" connect="1" arrows="1" fold="1" page="1" pageScale="1" pageWidth="827" pageHeight="1169" math="0" shadow="0">
      <root>
        <mxCell id="0" />
        <mxCell id="1" parent="0" />
        <mxCell id="-bd_Z8nNzuSJJkVP_aFk-1" value="执行程序" style="rounded=0;whiteSpace=wrap;html=1;" vertex="1" parent="1">
          <mxGeometry x="140" y="70" width="120" height="60" as="geometry" />
        </mxCell>
        <mxCell id="-bd_Z8nNzuSJJkVP_aFk-10" style="edgeStyle=orthogonalEdgeStyle;rounded=0;orthogonalLoop=1;jettySize=auto;html=1;exitX=1;exitY=0.5;exitDx=0;exitDy=0;entryX=0;entryY=0.5;entryDx=0;entryDy=0;" edge="1" parent="1" source="-bd_Z8nNzuSJJkVP_aFk-2" target="-bd_Z8nNzuSJJkVP_aFk-4">
          <mxGeometry relative="1" as="geometry" />
        </mxCell>
        <mxCell id="-bd_Z8nNzuSJJkVP_aFk-11" style="edgeStyle=orthogonalEdgeStyle;rounded=0;orthogonalLoop=1;jettySize=auto;html=1;exitX=1;exitY=0.5;exitDx=0;exitDy=0;entryX=0;entryY=0.5;entryDx=0;entryDy=0;" edge="1" parent="1" source="-bd_Z8nNzuSJJkVP_aFk-2" target="-bd_Z8nNzuSJJkVP_aFk-5">
          <mxGeometry relative="1" as="geometry" />
        </mxCell>
        <mxCell id="-bd_Z8nNzuSJJkVP_aFk-2" value="通用的解决方案" style="rhombus;whiteSpace=wrap;html=1;" vertex="1" parent="1">
          <mxGeometry x="140" y="180" width="120" height="120" as="geometry" />
        </mxCell>
        <mxCell id="-bd_Z8nNzuSJJkVP_aFk-3" value="" style="endArrow=classic;html=1;entryX=0.5;entryY=0;entryDx=0;entryDy=0;exitX=0.5;exitY=1;exitDx=0;exitDy=0;" edge="1" parent="1" source="-bd_Z8nNzuSJJkVP_aFk-1" target="-bd_Z8nNzuSJJkVP_aFk-2">
          <mxGeometry width="50" height="50" relative="1" as="geometry">
            <mxPoint x="390" y="240" as="sourcePoint" />
            <mxPoint x="440" y="190" as="targetPoint" />
          </mxGeometry>
        </mxCell>
        <mxCell id="-bd_Z8nNzuSJJkVP_aFk-4" value="" style="rounded=0;whiteSpace=wrap;html=1;" vertex="1" parent="1">
          <mxGeometry x="330" y="180" width="120" height="60" as="geometry" />
        </mxCell>
        <mxCell id="-bd_Z8nNzuSJJkVP_aFk-5" value="" style="rounded=0;whiteSpace=wrap;html=1;" vertex="1" parent="1">
          <mxGeometry x="330" y="300" width="120" height="60" as="geometry" />
        </mxCell>
      </root>
    </mxGraphModel>
  </diagram>
</mxfile>
